<?xml version="1.0" standalone="no"?><!DOCTYPE svg PUBLIC "-//W3C//DTD SVG 1.1//EN" "http://www.w3.org/Graphics/SVG/1.1/DTD/svg11.dtd"><svg class="icon" width="25px" height="25.00px" viewBox="0 0 1024 1024" version="1.1" xmlns="http://www.w3.org/2000/svg"><path d="M827.076923 439.138462c-55.138462-21.661538-63.015385-43.323077-63.015385-64.984616s15.753846-43.323077 35.446154-59.076923c33.476923-27.569231 51.2-68.923077 51.2-114.215385 0-86.646154-57.107692-161.476923-157.538461-161.476923-92.553846 0-147.692308 63.015385-155.569231 139.815385 0 7.876923 3.938462 13.784615 9.846154 17.723077 74.830769 47.261538 120.123077 129.969231 120.123077 230.4 0 74.830769-29.538462 141.784615-82.707693 189.046154-3.938462 3.938462-3.938462 11.815385 0 15.753846 13.784615 9.846154 45.292308 23.630769 64.984616 33.476923 5.907692 1.969231 9.846154 3.938462 15.753846 3.938462h238.276923c45.292308 0 80.738462-37.415385 80.738462-78.769231v-11.815385c0-68.923077-74.830769-106.338462-157.538462-139.815384zM563.2 712.861538c-66.953846-27.569231-76.8-51.2-76.8-76.8 0-25.6 19.692308-51.2 41.353846-70.892307 39.384615-33.476923 61.046154-80.738462 61.046154-135.876923 0-102.4-66.953846-191.015385-189.046154-191.015385-120.123077 0-189.046154 88.615385-189.046154 191.015385 0 55.138462 21.661538 102.4 61.046154 135.876923 21.661538 19.692308 41.353846 45.292308 41.353846 70.892307 0 25.6-9.846154 51.2-78.76923 76.8-98.461538 39.384615-194.953846 84.676923-194.953847 167.384616V905.846154c0 43.323077 35.446154 78.769231 80.738462 78.769231h545.476923c45.292308 0 82.707692-35.446154 82.707692-78.769231v-27.569231c0-80.738462-86.646154-126.030769-185.107692-165.415385z" /></svg>