<?xml version="1.0" standalone="no"?><!DOCTYPE svg PUBLIC "-//W3C//DTD SVG 1.1//EN" "http://www.w3.org/Graphics/SVG/1.1/DTD/svg11.dtd"><svg class="icon" width="40px" height="40.00px" viewBox="0 0 1024 1024" version="1.1" xmlns="http://www.w3.org/2000/svg"><path d="M707.6 491.1c-121.5 0-220 98.5-220 220s98.5 220 220 220 220-98.5 220-220c-0.1-121.5-98.6-220-220-220z m140.5 164.6L711.9 791.9l-25.6 25.6c-3.4 3.4-8 5.3-12.8 5.2-4.8 0.1-9.4-1.8-12.8-5.2l-25.6-25.6-68-68.1c-3.4-3.4-5.3-8-5.2-12.8 0-5 1.7-9.3 5.2-12.8l25.6-25.6c3.4-3.4 8-5.3 12.8-5.2 5 0 9.3 1.7 12.8 5.2l55.3 55.5 123.3-123.5c3.4-3.4 8-5.3 12.8-5.2 5 0 9.3 1.7 12.8 5.2l25.6 25.6c3.4 3.3 5.3 7.9 5.2 12.7 0.1 4.8-1.8 9.5-5.2 12.8z" fill="#707070" /><path d="M447.7 707.4c-0.1-141 115-256.2 256-256.2 84.4 0 159.2 40.8 205.8 103.8 5.7 7.8 18 3.7 18-5.9V275.6c0-10.4-4.5-20.3-12.4-27.2L717.3 76.3c-6.5-5.7-14.9-8.8-23.6-8.8H115.6c-9.9 0-18 8.1-18 18v859.3c0 9.9 8.1 18 18 18l483.7-1c10.9 0 13.9-14.9 3.9-19.2-91.3-39-155.4-129.6-155.5-235.2z" fill="#707070" /></svg>