<?xml version="1.0" standalone="no"?><!DOCTYPE svg PUBLIC "-//W3C//DTD SVG 1.1//EN" "http://www.w3.org/Graphics/SVG/1.1/DTD/svg11.dtd"><svg class="icon" width="40px" height="40.00px" viewBox="0 0 1024 1024" version="1.1" xmlns="http://www.w3.org/2000/svg"><path d="M592.1 584.7s19.8-29.6 40.9-87.7c21.1-58 24.1-90 24.1-90l-166.6-1.4v-56.9l201.8-1.4v-40.2H490.5v-91.6h-98.9v91.6H203.4v40.2l188.2-1.4V407h-151v32h310.8s-3.4 25.9-15.3 58c-11.9 32.2-24.2 60.4-24.2 60.4S366 506.3 289 506.3c-76.9 0-170.4 30.9-179.5 120.5-9 89.6 43.6 138.2 117.7 156.1 74.1 17.9 142.5-0.2 202.1-29.4 59.6-29.1 118-95.4 118-95.4l309 150.1s19.4-29.3 33.4-56.6c14-27.2 25.6-58.3 25.6-58.3L592.1 584.7zM273.2 733.9c-109 0-131.9-53.5-131.9-92s22.7-80.3 115.4-86.4c92.8-6 218 65.7 218 65.7s-92.4 112.7-201.5 112.7z" fill="#ffffff" /></svg>